<?xml version="1.0" encoding="UTF-8"?>
<svg id="Ebene_1" data-name="Ebene 1" xmlns="http://www.w3.org/2000/svg" xmlns:xlink="http://www.w3.org/1999/xlink" viewBox="0 0 1845.17 1280.33">
  <defs>
    <style>
      .cls-1 {
        font-family: GillSansNova-Bold, 'Gill Sans Nova';
        font-size: 360px;
        font-weight: 700;
      }

      .cls-2 {
        fill: #508991;
      }

      .cls-3 {
        fill: #00aca0;
      }

      .cls-4, .cls-5 {
        fill: none;
      }

      .cls-6 {
        letter-spacing: 0em;
      }

      .cls-6, .cls-7, .cls-8 {
        fill: #004346;
      }

      .cls-5 {
        clip-path: url(#clippath);
      }

      .cls-8 {
        letter-spacing: -.05em;
      }
    </style>
    <clipPath id="clippath">
      <rect class="cls-4" x="0" y="640.54" width="639.79" height="639.79"/>
    </clipPath>
  </defs>
  <text class="cls-1" transform="translate(582.89 1083.19)"><tspan class="cls-7" x="0" y="0">G</tspan><tspan class="cls-8" x="280.8" y="0">B</tspan><tspan class="cls-3" x="506.88" y="0">Y</tspan><tspan class="cls-6" x="758.16" y="0">DE</tspan></text>
  <g class="cls-5">
    <polygon class="cls-3" points="556.8 938.79 509.27 986.03 462.04 938.5 414.8 890.98 367.28 938.21 319.75 985.45 272.52 937.92 320.04 890.69 367.57 843.45 415.09 796.22 462.33 843.74 509.56 891.27 556.8 938.79"/>
    <rect class="cls-7" x="239.45" y="762.28" width="67.01" height="67.01" transform="translate(-481.62 423.77) rotate(-44.82)"/>
    <polygon class="cls-7" points="177.76 937.63 213.88 973.97 166.35 1021.21 130.23 984.87 82.99 937.34 130.52 890.11 178.05 842.87 225.28 890.4 177.76 937.63"/>
    <rect class="cls-2" x="190.1" y="997.78" width="67.01" height="67.01" transform="translate(-661.98 457.45) rotate(-44.82)"/>
    <polygon class="cls-7" points="459.26 1030.76 411.74 1078 364.21 1125.23 316.68 1172.47 270.69 1126.19 269.45 1124.94 234.59 1089.86 282.11 1042.63 316.98 1077.71 364.5 1030.47 412.03 983.24 459.26 1030.76"/>
  </g>
</svg>